<svg xmlns="http://www.w3.org/2000/svg" viewBox="0 0 400 400" role="img" aria-labelledby="tI">
<title id="tI">A character at the end of an automated pipeline</title>
<defs>
<radialGradient id="bgI" cx="32%" cy="22%" r="92%">
  <stop offset="0" stop-color="#3fc48c"/><stop offset="1" stop-color="#0b6b4b"/>
</radialGradient>
<radialGradient id="glowI" cx="50%" cy="50%" r="50%">
  <stop offset="0" stop-color="#bdf7dc" stop-opacity=".85"/><stop offset="1" stop-color="#bdf7dc" stop-opacity="0"/>
</radialGradient>
<filter id="softI" x="-60%" y="-60%" width="220%" height="220%"><feGaussianBlur stdDeviation="16"/></filter>
<filter id="tinyI" x="-60%" y="-60%" width="220%" height="220%"><feGaussianBlur stdDeviation="5"/></filter>
<linearGradient id="sheenI" x1="0" y1="0" x2=".2" y2="1">
  <stop offset="0" stop-color="#fff" stop-opacity=".58"/><stop offset=".55" stop-color="#fff" stop-opacity="0"/>
</linearGradient>
<radialGradient id="o0" cx="33%" cy="26%" r="78%">
  <stop offset="0" stop-color="#fff2b0"/><stop offset=".55" stop-color="#ffd34d"/><stop offset="1" stop-color="#e09a00"/>
</radialGradient></defs>
<rect width="400" height="400" rx="28" fill="url(#bgI)"/>
<circle cx="312" cy="78" r="112" fill="url(#glowI)"/>
<circle cx="82" cy="330" r="96" fill="url(#glowI)" opacity=".7"/>
<path d="M348 39Q350.6 49.4 361 52Q350.6 54.6 348 65Q345.4 54.6 335 52Q345.4 49.4 348 39Z" fill="#fff" opacity="0.9"/><path d="M44 77Q45.8 84.2 53 86Q45.8 87.8 44 95Q42.2 87.8 35 86Q42.2 84.2 44 77Z" fill="#fff" opacity="0.75"/><path d="M366 292Q367.6 298.4 374 300Q367.6 301.6 366 308Q364.4 301.6 358 300Q364.4 298.4 366 292Z" fill="#fff" opacity="0.6"/>
<g stroke-linejoin="round" stroke-linecap="round">

<ellipse cx="82.0" cy="152" rx="44.160000000000004" ry="13" fill="#1b1008" opacity="0.3" filter="url(#softI)"/>
<rect x="34" y="76" width="96" height="66" rx="20" fill="#fffdf8" stroke="#2a1f18" stroke-width="7"/>
<rect x="34" y="76" width="96" height="66" rx="20" fill="url(#sheenI)"/><ellipse cx="82.0" cy="312" rx="44.160000000000004" ry="13" fill="#1b1008" opacity="0.3" filter="url(#softI)"/>
<rect x="34" y="236" width="96" height="66" rx="20" fill="#fffdf8" stroke="#2a1f18" stroke-width="7"/>
<rect x="34" y="236" width="96" height="66" rx="20" fill="url(#sheenI)"/>
<path d="M130 109h44q22 0 22 40t22 40h34M130 269h44q22 0 22-40t22-40h34" fill="none" stroke="#2a1f18" stroke-width="8"/>
<path d="M244 170l22 20-22 20" fill="none" stroke="#2a1f18" stroke-width="13"/>
<ellipse cx="312" cy="245.07999999999998" rx="46.44" ry="10.8" fill="#1b1008" opacity="0.34" filter="url(#softI)"/>
<ellipse cx="289.32" cy="240.76" rx="13.5" ry="9.2" fill="url(#o0)" stroke="#2a1f18" stroke-width="4.0"/>
<ellipse cx="334.68" cy="240.76" rx="13.5" ry="9.2" fill="url(#o0)" stroke="#2a1f18" stroke-width="4.0"/>
<circle cx="312" cy="190" r="54" fill="url(#o0)" stroke="#2a1f18" stroke-width="4.6"/>
<path d="M359.52 214.84A54 54 0 0 1 295.8 241.3" fill="none" stroke="#fff" stroke-opacity=".4" stroke-width="4.9" stroke-linecap="round"/>
<ellipse cx="292.56" cy="166.24" rx="16.2" ry="10.3" fill="#fff" opacity=".72" transform="rotate(-26 292.56 166.24)" filter="url(#tinyI)"/>
<circle cx="334.68" cy="161.92" r="3.8" fill="#fff" opacity=".8"/>
<path d="M288.78000000000003 188.92q7.0200000000000005 -10.26 14.040000000000001 0" fill="none" stroke="#2a1f18" stroke-width="4.4" stroke-linecap="round"/>
<path d="M321.18 188.92q7.0200000000000005 -10.26 14.040000000000001 0" fill="none" stroke="#2a1f18" stroke-width="4.4" stroke-linecap="round"/>
<path d="M303.9 200.26q8.1 9.719999999999999 16.2 0" fill="none" stroke="#2a1f18" stroke-width="4.2" stroke-linecap="round"/>
<ellipse cx="281.22" cy="199.18" rx="8.1" ry="5.1" fill="#ff7d5c" opacity=".6"/>
<ellipse cx="342.78" cy="199.18" rx="8.1" ry="5.1" fill="#ff7d5c" opacity=".6"/>
</g>
</svg>