<svg xmlns="http://www.w3.org/2000/svg" viewBox="0 0 400 400" role="img" aria-labelledby="title"><title id="title">An agency founder mascot beside a cascading waterfall of client work</title><g stroke-linejoin="round" stroke-linecap="round"><rect width="400" height="400" rx="28" fill="#F3D6E2"/><ellipse cx="207" cy="342" rx="137" ry="15" fill="#30251F" opacity=".09"/><g opacity=".38"><path d="M20 98 Q6 81 24 69 Q21 43 45 45 Q60 23 78 45 Q105 43 105 69 Q128 82 110 98Z" fill="#FFFCF5" stroke="#30251F" stroke-width="4" stroke-linecap="round" stroke-linejoin="round"/></g><path d="M57 85H155V147H225V213H290V279H350" fill="none" stroke="#30251F" stroke-width="8" stroke-linecap="round" stroke-linejoin="round"/><path d="M73 85H137V166H208V232H271V312H347" fill="#C8DDA5" stroke="#30251F" stroke-width="6" stroke-linecap="round" stroke-linejoin="round"/><rect x="41" y="54" width="91" height="53" rx="10" fill="#FFFCF5" stroke="#30251F" stroke-width="6"/><rect x="161" y="123" width="94" height="54" rx="10" fill="#FFD84D" stroke="#30251F" stroke-width="6"/><rect x="240" y="205" width="100" height="53" rx="10" fill="#FFFCF5" stroke="#30251F" stroke-width="6"/><path d="M57 75H111 M179 145H233 M260 226H320" fill="none" stroke="#30251F" stroke-width="5" stroke-linecap="round" stroke-linejoin="round"/><g transform="translate(127 273) scale(0.8)"><path d="M-25 53 L-30 73 Q-45 81 -46 70 L-43 53" fill="#FFFCF5" stroke="#30251F" stroke-width="6" stroke-linecap="round" stroke-linejoin="round"/><path d="M23 53 L28 73 Q43 81 44 70 L40 53" fill="#FFFCF5" stroke="#30251F" stroke-width="6" stroke-linecap="round" stroke-linejoin="round"/><path d="M-46 10 Q-67 5 -68 24 Q-65 37 -52 29" fill="#FFFCF5" stroke="#30251F" stroke-width="6" stroke-linecap="round" stroke-linejoin="round"/><path d="M46 10 Q65 -7 70 10 Q79 27 58 30" fill="#FFFCF5" stroke="#30251F" stroke-width="6" stroke-linecap="round" stroke-linejoin="round"/><path d="M-49 15 Q-59 -50 0 -51 Q61 -50 49 15 L44 40 Q40 60 0 58 Q-40 60 -44 40 Z" fill="#FF7A2F" stroke="#30251F" stroke-width="6" stroke-linecap="round" stroke-linejoin="round"/><path d="M-34 -20 Q-29 -35 -16 -36" fill="#FFFCF5" stroke="#30251F" stroke-width="5" stroke-linecap="round" stroke-linejoin="round"/><g transform="translate(0 0) scale(1)"><ellipse cx="-18" cy="0" rx="4" ry="7" fill="#30251F"/><ellipse cx="18" cy="0" rx="4" ry="7" fill="#30251F"/><ellipse cx="-31" cy="13" rx="10" ry="5" fill="#ED9E87"/><ellipse cx="31" cy="13" rx="10" ry="5" fill="#ED9E87"/><path d="M-10 14 Q0 26 10 14" fill="none" stroke="#30251F" stroke-width="4" stroke-linecap="round" stroke-linejoin="round"/></g></g><path d="M175 275Q198 249 209 267" fill="none" stroke="#30251F" stroke-width="7" stroke-linecap="round" stroke-linejoin="round"/><path d="M313 101V125 M301 113H325" fill="none" stroke="#30251F" stroke-width="5" stroke-linecap="round" stroke-linejoin="round"/></g></svg>