<svg xmlns="http://www.w3.org/2000/svg" viewBox="0 0 400 400" role="img" aria-labelledby="tF">
<title id="tF">A character on screen with chat bubbles</title>
<defs>
<radialGradient id="bgF" cx="32%" cy="22%" r="92%">
  <stop offset="0" stop-color="#ff7b63"/><stop offset="1" stop-color="#a81d16"/>
</radialGradient>
<radialGradient id="glowF" cx="50%" cy="50%" r="50%">
  <stop offset="0" stop-color="#ffd2c4" stop-opacity=".85"/><stop offset="1" stop-color="#ffd2c4" stop-opacity="0"/>
</radialGradient>
<filter id="softF" x="-60%" y="-60%" width="220%" height="220%"><feGaussianBlur stdDeviation="16"/></filter>
<filter id="tinyF" x="-60%" y="-60%" width="220%" height="220%"><feGaussianBlur stdDeviation="5"/></filter>
<linearGradient id="sheenF" x1="0" y1="0" x2=".2" y2="1">
  <stop offset="0" stop-color="#fff" stop-opacity=".58"/><stop offset=".55" stop-color="#fff" stop-opacity="0"/>
</linearGradient>
<radialGradient id="o0" cx="33%" cy="26%" r="78%">
  <stop offset="0" stop-color="#cfe9ff"/><stop offset=".55" stop-color="#67b8ff"/><stop offset="1" stop-color="#1668c4"/>
</radialGradient>
<radialGradient id="o1" cx="33%" cy="26%" r="78%">
  <stop offset="0" stop-color="#fff2b0"/><stop offset=".55" stop-color="#ffd34d"/><stop offset="1" stop-color="#e09a00"/>
</radialGradient></defs>
<rect width="400" height="400" rx="28" fill="url(#bgF)"/>
<circle cx="312" cy="78" r="112" fill="url(#glowF)"/>
<circle cx="82" cy="330" r="96" fill="url(#glowF)" opacity=".7"/>
<path d="M348 39Q350.6 49.4 361 52Q350.6 54.6 348 65Q345.4 54.6 335 52Q345.4 49.4 348 39Z" fill="#fff" opacity="0.9"/><path d="M44 77Q45.8 84.2 53 86Q45.8 87.8 44 95Q42.2 87.8 35 86Q42.2 84.2 44 77Z" fill="#fff" opacity="0.75"/><path d="M366 292Q367.6 298.4 374 300Q367.6 301.6 366 308Q364.4 301.6 358 300Q364.4 298.4 366 292Z" fill="#fff" opacity="0.6"/>
<g stroke-linejoin="round" stroke-linecap="round">

<ellipse cx="151.0" cy="238" rx="102.12" ry="13" fill="#1b1008" opacity="0.3" filter="url(#softF)"/>
<rect x="40" y="62" width="222" height="166" rx="26" fill="#fffdf8" stroke="#2a1f18" stroke-width="7"/>
<rect x="40" y="62" width="222" height="166" rx="26" fill="url(#sheenF)"/>
<ellipse cx="151" cy="191.0" rx="43.0" ry="10.0" fill="#1b1008" opacity="0.34" filter="url(#softF)"/>
<ellipse cx="130.0" cy="187.0" rx="12.5" ry="8.5" fill="url(#o0)" stroke="#2a1f18" stroke-width="3.8"/>
<ellipse cx="172.0" cy="187.0" rx="12.5" ry="8.5" fill="url(#o0)" stroke="#2a1f18" stroke-width="3.8"/>
<circle cx="151" cy="140" r="50" fill="url(#o0)" stroke="#2a1f18" stroke-width="4.2"/>
<path d="M195.0 163.0A50 50 0 0 1 136.0 187.5" fill="none" stroke="#fff" stroke-opacity=".4" stroke-width="4.5" stroke-linecap="round"/>
<ellipse cx="133.0" cy="118.0" rx="15.0" ry="9.5" fill="#fff" opacity=".72" transform="rotate(-26 133.0 118.0)" filter="url(#tinyF)"/>
<circle cx="172.0" cy="114.0" r="3.5" fill="#fff" opacity=".8"/>
<path d="M129.5 139.0q6.5 -9.5 13.0 0" fill="none" stroke="#2a1f18" stroke-width="4.1" stroke-linecap="round"/>
<path d="M159.5 139.0q6.5 -9.5 13.0 0" fill="none" stroke="#2a1f18" stroke-width="4.1" stroke-linecap="round"/>
<path d="M143.5 149.5q7.5 9.0 15.0 0" fill="none" stroke="#2a1f18" stroke-width="3.9" stroke-linecap="round"/>
<ellipse cx="122.5" cy="148.5" rx="7.5" ry="4.8" fill="#ff7d5c" opacity=".6"/>
<ellipse cx="179.5" cy="148.5" rx="7.5" ry="4.8" fill="#ff7d5c" opacity=".6"/>
<path d="M151 228v26M112 254h78" stroke="#2a1f18" stroke-width="13" fill="none" stroke-linecap="round"/>
<ellipse cx="284.0" cy="344" rx="68.08" ry="13" fill="#1b1008" opacity="0.3" filter="url(#softF)"/>
<rect x="210" y="236" width="148" height="98" rx="32" fill="#fffdf8" stroke="#2a1f18" stroke-width="7"/>
<rect x="210" y="236" width="148" height="98" rx="32" fill="url(#sheenF)"/>
<circle cx="250" cy="286" r="11" fill="#2a1f18" opacity=".75"/>
<circle cx="284" cy="286" r="11" fill="#2a1f18" opacity=".75"/>
<circle cx="318" cy="286" r="11" fill="#2a1f18" opacity=".75"/>
<path d="M244 334l-26 36 52-36Z" fill="#fffdf8" stroke="#2a1f18" stroke-width="7"/>
</g>
</svg>