<svg xmlns="http://www.w3.org/2000/svg" viewBox="0 0 400 400" role="img" aria-labelledby="title"><title id="title">Two recurring cartoon characters explain insurance inside a video player</title><g stroke-linejoin="round" stroke-linecap="round"><rect width="400" height="400" rx="28" fill="#FFF0B6"/><ellipse cx="207" cy="342" rx="137" ry="15" fill="#30251F" opacity=".09"/><g opacity=".38"><path d="M20 98 Q6 81 24 69 Q21 43 45 45 Q60 23 78 45 Q105 43 105 69 Q128 82 110 98Z" fill="#FFFCF5" stroke="#30251F" stroke-width="4" stroke-linecap="round" stroke-linejoin="round"/></g><rect x="44" y="104" width="301" height="202" rx="16" fill="#FFFCF5" stroke="#30251F" stroke-width="6"/><rect x="60" y="120" width="269" height="158" rx="10" fill="#C8DDA5" stroke="#30251F" stroke-width="6"/><g transform="translate(119 231) scale(0.63)"><path d="M-25 53 L-30 73 Q-45 81 -46 70 L-43 53" fill="#FFFCF5" stroke="#30251F" stroke-width="6" stroke-linecap="round" stroke-linejoin="round"/><path d="M23 53 L28 73 Q43 81 44 70 L40 53" fill="#FFFCF5" stroke="#30251F" stroke-width="6" stroke-linecap="round" stroke-linejoin="round"/><path d="M-46 10 Q-67 5 -68 24 Q-65 37 -52 29" fill="#FFFCF5" stroke="#30251F" stroke-width="6" stroke-linecap="round" stroke-linejoin="round"/><path d="M46 10 Q65 -7 70 10 Q79 27 58 30" fill="#FFFCF5" stroke="#30251F" stroke-width="6" stroke-linecap="round" stroke-linejoin="round"/><path d="M-49 15 Q-59 -50 0 -51 Q61 -50 49 15 L44 40 Q40 60 0 58 Q-40 60 -44 40 Z" fill="#FF7A2F" stroke="#30251F" stroke-width="6" stroke-linecap="round" stroke-linejoin="round"/><path d="M-34 -20 Q-29 -35 -16 -36" fill="#FFFCF5" stroke="#30251F" stroke-width="5" stroke-linecap="round" stroke-linejoin="round"/><g transform="translate(0 0) scale(1)"><ellipse cx="-18" cy="0" rx="4" ry="7" fill="#30251F"/><ellipse cx="18" cy="0" rx="4" ry="7" fill="#30251F"/><ellipse cx="-31" cy="13" rx="10" ry="5" fill="#ED9E87"/><ellipse cx="31" cy="13" rx="10" ry="5" fill="#ED9E87"/><path d="M-10 14 Q0 26 10 14" fill="none" stroke="#30251F" stroke-width="4" stroke-linecap="round" stroke-linejoin="round"/></g></g><g transform="translate(280 229) scale(0.62)"><path d="M-25 53 L-30 73 Q-45 81 -46 70 L-43 53" fill="#FFFCF5" stroke="#30251F" stroke-width="6" stroke-linecap="round" stroke-linejoin="round"/><path d="M23 53 L28 73 Q43 81 44 70 L40 53" fill="#FFFCF5" stroke="#30251F" stroke-width="6" stroke-linecap="round" stroke-linejoin="round"/><path d="M-46 10 Q-67 5 -68 24 Q-65 37 -52 29" fill="#FFFCF5" stroke="#30251F" stroke-width="6" stroke-linecap="round" stroke-linejoin="round"/><path d="M46 10 Q65 -7 70 10 Q79 27 58 30" fill="#FFFCF5" stroke="#30251F" stroke-width="6" stroke-linecap="round" stroke-linejoin="round"/><path d="M-49 15 Q-59 -50 0 -51 Q61 -50 49 15 L44 40 Q40 60 0 58 Q-40 60 -44 40 Z" fill="#FFD84D" stroke="#30251F" stroke-width="6" stroke-linecap="round" stroke-linejoin="round"/><path d="M-34 -20 Q-29 -35 -16 -36" fill="#FFFCF5" stroke="#30251F" stroke-width="5" stroke-linecap="round" stroke-linejoin="round"/><g transform="translate(0 0) scale(1)"><ellipse cx="-18" cy="0" rx="4" ry="7" fill="#30251F"/><ellipse cx="18" cy="0" rx="4" ry="7" fill="#30251F"/><ellipse cx="-31" cy="13" rx="10" ry="5" fill="#ED9E87"/><ellipse cx="31" cy="13" rx="10" ry="5" fill="#ED9E87"/><path d="M-10 14 Q0 26 10 14" fill="none" stroke="#30251F" stroke-width="4" stroke-linecap="round" stroke-linejoin="round"/></g></g><circle cx="201" cy="198" r="38" fill="#FFFCF5" stroke="#30251F" stroke-width="6"/><path d="M191 180L218 198L191 217Z" fill="#FF7A2F" stroke="#30251F" stroke-width="4" stroke-linecap="round" stroke-linejoin="round"/><path d="M43 67Q43 43 67 43H130Q153 43 153 67V85Q153 103 130 103H95L72 122V101H67Q43 101 43 81Z" fill="#FFFCF5" stroke="#30251F" stroke-width="5" stroke-linecap="round" stroke-linejoin="round"/><path d="M260 68Q260 44 282 44H339Q365 44 365 68V90Q365 109 341 109H326L341 129L299 109H282Q260 109 260 90Z" fill="#FFD84D" stroke="#30251F" stroke-width="5" stroke-linecap="round" stroke-linejoin="round"/><path d="M69 71H127 M281 73H342" fill="none" stroke="#30251F" stroke-width="5" stroke-linecap="round" stroke-linejoin="round"/><path d="M78 290H306" fill="none" stroke="#30251F" stroke-width="4" stroke-linecap="round" stroke-linejoin="round"/><circle cx="147" cy="290" r="5" fill="#FF7A2F" stroke="#30251F" stroke-width="6"/></g></svg>