<svg xmlns="http://www.w3.org/2000/svg" viewBox="0 0 640 640" width="640" height="640" role="img">
<defs>
<linearGradient id="bg" x1="0" y1="0" x2=".3" y2="1">
<stop offset="0" stop-color="#7fd8e8"/><stop offset="1" stop-color="#1b8ca8"/>
</linearGradient>
</defs>
<rect width="640" height="640" fill="url(#bg)"/>
<circle cx="86" cy="556" r="54" fill="#fff" opacity=".18"/>
<circle cx="140" cy="578" r="40" fill="#fff" opacity=".18"/>
<circle cx="566" cy="80" r="46" fill="#fff" opacity=".16"/>
<g fill="none" stroke="#2b2118" stroke-width="15" stroke-linecap="round" stroke-linejoin="round">

<rect x="92" y="88" width="300" height="392" rx="34" fill="#fff6e8"/>
<path d="M146 164h192M146 220h192M146 276h126" stroke-width="22" opacity=".45"/>
<circle cx="404" cy="300" r="118" fill="#eafaff" opacity=".95"/>
<circle cx="404" cy="300" r="118" fill="none" stroke-width="22"/>
<circle cx="372" cy="266" r="34" fill="#fff" opacity=".6" stroke="none"/>
<path d="M486 384l70 70" stroke-width="34"/>
<ellipse cx="177.88" cy="552.56" rx="22.36" ry="14.620000000000001" fill="#ff9f68"/>
<ellipse cx="250.12" cy="552.56" rx="22.36" ry="14.620000000000001" fill="#ff9f68"/>
<path d="M140.04000000000002 483.76L115.96000000000001 514.72" fill="none" stroke-linecap="round" stroke-width="21.75" stroke="#2b2118"/>
<path d="M287.96 483.76L312.03999999999996 514.72" fill="none" stroke-linecap="round" stroke-width="21.75" stroke="#2b2118"/>
<ellipse cx="214" cy="470" rx="86" ry="81.7" fill="#ff9f68"/>
<ellipse cx="184.76" cy="433.88" rx="25.8" ry="17.2" fill="#fff" opacity=".34" stroke="none" transform="rotate(-22 184.76 433.88)"/>
<ellipse cx="165.84" cy="487.2" rx="14.620000000000001" ry="9.46" fill="#ff9d7a" opacity=".85" stroke="none"/>
<ellipse cx="262.16" cy="487.2" rx="14.620000000000001" ry="9.46" fill="#ff9d7a" opacity=".85" stroke="none"/>
<ellipse cx="189.92" cy="463.12" rx="9.03" ry="10.75" fill="#2b2118" stroke="none"/>
<ellipse cx="238.08" cy="463.12" rx="9.03" ry="10.75" fill="#2b2118" stroke="none"/>
<circle cx="192.93" cy="457.96" r="3.0100000000000002" fill="#fff" stroke="none"/>
<circle cx="241.09" cy="457.96" r="3.0100000000000002" fill="#fff" stroke="none"/>
<path d="M199.38 487.2q14.620000000000001 17.2 29.240000000000002 0" fill="none" stroke="#2b2118" stroke-width="12.75" stroke-linecap="round"/>
</g>
</svg>