<svg xmlns="http://www.w3.org/2000/svg" viewBox="0 0 400 400" role="img" aria-labelledby="tC">
<title id="tC">A character inspecting a page through a glossy magnifier</title>
<defs>
<radialGradient id="bgC" cx="32%" cy="22%" r="92%">
  <stop offset="0" stop-color="#4fc3dd"/><stop offset="1" stop-color="#0f6f86"/>
</radialGradient>
<radialGradient id="glowC" cx="50%" cy="50%" r="50%">
  <stop offset="0" stop-color="#c8f6ff" stop-opacity=".85"/><stop offset="1" stop-color="#c8f6ff" stop-opacity="0"/>
</radialGradient>
<filter id="softC" x="-60%" y="-60%" width="220%" height="220%"><feGaussianBlur stdDeviation="16"/></filter>
<filter id="tinyC" x="-60%" y="-60%" width="220%" height="220%"><feGaussianBlur stdDeviation="5"/></filter>
<linearGradient id="sheenC" x1="0" y1="0" x2=".2" y2="1">
  <stop offset="0" stop-color="#fff" stop-opacity=".58"/><stop offset=".55" stop-color="#fff" stop-opacity="0"/>
</linearGradient>
<radialGradient id="o0" cx="33%" cy="26%" r="78%">
  <stop offset="0" stop-color="#ffd9c4"/><stop offset=".55" stop-color="#ff9a6a"/><stop offset="1" stop-color="#d44e1c"/>
</radialGradient></defs>
<rect width="400" height="400" rx="28" fill="url(#bgC)"/>
<circle cx="312" cy="78" r="112" fill="url(#glowC)"/>
<circle cx="82" cy="330" r="96" fill="url(#glowC)" opacity=".7"/>
<path d="M348 39Q350.6 49.4 361 52Q350.6 54.6 348 65Q345.4 54.6 335 52Q345.4 49.4 348 39Z" fill="#fff" opacity="0.9"/><path d="M44 77Q45.8 84.2 53 86Q45.8 87.8 44 95Q42.2 87.8 35 86Q42.2 84.2 44 77Z" fill="#fff" opacity="0.75"/><path d="M366 292Q367.6 298.4 374 300Q367.6 301.6 366 308Q364.4 301.6 358 300Q364.4 298.4 366 292Z" fill="#fff" opacity="0.6"/>
<g stroke-linejoin="round" stroke-linecap="round">

<ellipse cx="142.0" cy="296" rx="82.8" ry="13" fill="#1b1008" opacity="0.3" filter="url(#softC)"/>
<rect x="52" y="54" width="180" height="232" rx="26" fill="#fffdf8" stroke="#2a1f18" stroke-width="7"/>
<rect x="52" y="54" width="180" height="232" rx="26" fill="url(#sheenC)"/>
<rect x="80" y="92" width="124" height="13" rx="6.5" fill="#2a1f18" opacity=".3"/>
<rect x="80" y="124" width="124" height="13" rx="6.5" fill="#2a1f18" opacity=".3"/>
<rect x="80" y="156" width="80" height="13" rx="6.5" fill="#2a1f18" opacity=".3"/>
<ellipse cx="268" cy="330" rx="66" ry="13" fill="#1b1008" opacity="0.32" filter="url(#softC)"/>
<path d="M300 246l52 52" stroke="#2a1f18" stroke-width="26" stroke-linecap="round"/>
<path d="M300 246l52 52" stroke="#b9b1a6" stroke-width="13" stroke-linecap="round"/>
<circle cx="256" cy="200" r="78" fill="#eafcff" opacity=".93" stroke="#2a1f18" stroke-width="8"/>
<ellipse cx="228" cy="172" rx="30" ry="20" fill="#fff" opacity=".85" transform="rotate(-28 228 172)"/>
<path d="M214 206l24 26 50-56" fill="none" stroke="#1f9e4d" stroke-width="16" stroke-linecap="round"/>
<ellipse cx="108" cy="359.16" rx="49.88" ry="11.600000000000001" fill="#1b1008" opacity="0.34" filter="url(#softC)"/>
<path d="M60.440000000000005 305.8L37.239999999999995 332.48" stroke="#2a1f18" stroke-width="12.2" stroke-linecap="round" fill="none"/>
<circle cx="37.239999999999995" cy="332.48" r="8.1" fill="url(#o0)" stroke="#2a1f18" stroke-width="4.3"/>
<path d="M155.56 305.8L178.76 332.48" stroke="#2a1f18" stroke-width="12.2" stroke-linecap="round" fill="none"/>
<circle cx="178.76" cy="332.48" r="8.1" fill="url(#o0)" stroke="#2a1f18" stroke-width="4.3"/>
<ellipse cx="83.64" cy="354.52" rx="14.5" ry="9.9" fill="url(#o0)" stroke="#2a1f18" stroke-width="4.3"/>
<ellipse cx="132.36" cy="354.52" rx="14.5" ry="9.9" fill="url(#o0)" stroke="#2a1f18" stroke-width="4.3"/>
<circle cx="108" cy="300" r="58" fill="url(#o0)" stroke="#2a1f18" stroke-width="4.9"/>
<path d="M159.04 326.68A58 58 0 0 1 90.6 355.1" fill="none" stroke="#fff" stroke-opacity=".4" stroke-width="5.2" stroke-linecap="round"/>
<ellipse cx="87.12" cy="274.48" rx="17.4" ry="11.0" fill="#fff" opacity=".72" transform="rotate(-26 87.12 274.48)" filter="url(#tinyC)"/>
<circle cx="132.36" cy="269.84" r="4.1" fill="#fff" opacity=".8"/>
<ellipse cx="91.18" cy="295.94" rx="5.8" ry="7.2" fill="#2a1f18"/>
<circle cx="89.15" cy="292.46" r="2.1" fill="#fff"/>
<ellipse cx="124.82" cy="295.94" rx="5.8" ry="7.2" fill="#2a1f18"/>
<circle cx="122.78999999999999" cy="292.46" r="2.1" fill="#fff"/>
<path d="M99.3 311.02q8.7 10.44 17.4 0" fill="none" stroke="#2a1f18" stroke-width="4.5" stroke-linecap="round"/>
<ellipse cx="74.94" cy="309.86" rx="8.7" ry="5.5" fill="#ff7d5c" opacity=".6"/>
<ellipse cx="141.06" cy="309.86" rx="8.7" ry="5.5" fill="#ff7d5c" opacity=".6"/>
</g>
</svg>